<svg xmlns="http://www.w3.org/2000/svg" xmlns:xlink="http://www.w3.org/1999/xlink" width="1024" zoomAndPan="magnify" viewBox="0 0 768 767.999994" height="1024" preserveAspectRatio="xMidYMid meet" version="1.2"><defs><clipPath id="fbd887ec69"><path d="M 605 300.089844 L 685 300.089844 L 685 379 L 605 379 Z M 605 300.089844 "/></clipPath><clipPath id="a4f598f4d6"><path d="M 757.09375 316.816406 L 675.425781 398.488281 L 593.753906 316.816406 L 675.425781 235.144531 Z M 757.09375 316.816406 "/></clipPath><clipPath id="081aba7b3f"><path d="M 757.09375 316.816406 L 675.425781 398.488281 L 593.753906 316.816406 L 675.425781 235.144531 Z M 757.09375 316.816406 "/></clipPath><clipPath id="dafd02150d"><path d="M 757.09375 316.816406 L 675.425781 398.488281 L 593.753906 316.816406 L 675.425781 235.144531 Z M 757.09375 316.816406 "/></clipPath><clipPath id="1b234ab5d8"><path d="M 710.835938 330.324219 L 662.238281 378.921875 L 605.453125 322.132812 L 654.050781 273.535156 Z M 710.835938 330.324219 "/></clipPath><clipPath id="ca42a60d38"><path d="M 734.761719 349.144531 L 639.480469 444.429688 L 544.199219 349.144531 L 639.480469 253.863281 Z M 734.761719 349.144531 "/></clipPath><clipPath id="82af2fbc0f"><path d="M 811.542969 425.925781 L 558.980469 678.488281 L 306.417969 425.925781 L 558.980469 173.363281 Z M 811.542969 425.925781 "/></clipPath><clipPath id="7017dedf7a"><path d="M 112.214844 302.867188 L 661 302.867188 L 661 504.773438 L 112.214844 504.773438 Z M 112.214844 302.867188 "/></clipPath><clipPath id="808b1c07b8"><path d="M 190.761719 1117.808594 L -410.101562 516.941406 L 190.761719 -83.921875 L 791.625 516.941406 Z M 190.761719 1117.808594 "/></clipPath><clipPath id="23aa1d8782"><path d="M 286.75 1021.816406 L -314.113281 420.953125 L 190.761719 -83.921875 L 791.625 516.941406 Z M 286.75 1021.816406 "/></clipPath><clipPath id="cb64c03781"><path d="M 190.777344 1117.789062 L -410.085938 516.925781 L 190.777344 -83.9375 L 791.640625 516.925781 Z M 190.777344 1117.789062 "/></clipPath><clipPath id="c5b4ef5494"><path d="M 394.976562 650.710938 L 91.417969 347.152344 L 356.640625 81.925781 L 660.203125 385.488281 Z M 394.976562 650.710938 "/></clipPath><clipPath id="8cfe6cf614"><path d="M 394.976562 1065.371094 L -222.316406 448.078125 L 394.976562 -169.214844 L 1012.269531 448.078125 Z M 394.976562 1065.371094 "/></clipPath><clipPath id="b0c48ca0dc"><path d="M 394.976562 1065.371094 L -222.316406 448.078125 L 394.976562 -169.214844 L 1012.269531 448.078125 Z M 394.976562 1065.371094 "/></clipPath><clipPath id="b58116dc80"><path d="M 394.976562 788.410156 L 10.050781 403.480469 L 394.195312 19.335938 L 779.125 404.265625 Z M 394.976562 788.410156 "/></clipPath><clipPath id="13dc326230"><path d="M 394.976562 650.710938 L 91.417969 347.152344 L 394.976562 43.589844 L 698.539062 347.152344 Z M 394.976562 650.710938 "/></clipPath><clipPath id="40f8e53859"><path d="M 603.167969 321.636719 C 615.160156 302.707031 640.085938 297.1875 658.859375 309.179688 C 677.789062 321.164062 683.3125 346.085938 671.324219 364.859375 C 616.582031 450.824219 511.039062 504.773438 394.921875 504.773438 C 278.808594 504.777344 173.265625 450.828125 118.523438 364.859375 C 106.539062 346.085938 112.054688 321.164062 130.988281 309.175781 C 149.761719 297.1875 174.691406 302.707031 186.675781 321.636719 C 226.121094 383.46875 305.632812 424.011719 394.925781 424.011719 C 484.214844 424.011719 563.730469 383.46875 603.167969 321.636719 Z M 603.167969 321.636719 "/></clipPath></defs><g id="1aac148c92"><g clip-rule="nonzero" clip-path="url(#fbd887ec69)"><g clip-rule="nonzero" clip-path="url(#a4f598f4d6)"><g clip-rule="nonzero" clip-path="url(#081aba7b3f)"><g clip-rule="nonzero" clip-path="url(#dafd02150d)"><g clip-rule="nonzero" clip-path="url(#1b234ab5d8)"><g clip-rule="nonzero" clip-path="url(#ca42a60d38)"><g clip-rule="nonzero" clip-path="url(#82af2fbc0f)"><path style=" stroke:none;fill-rule:nonzero;fill:#000000;fill-opacity:1;" d="M 662.316406 378.835938 L 662.316406 378.570312 C 662.5 378.421875 662.648438 378.246094 662.761719 378.039062 C 663.082031 377.605469 663.332031 377.132812 663.511719 376.625 C 663.605469 376.457031 663.679688 376.277344 663.734375 376.09375 L 663.734375 375.429688 L 684.644531 309.25 C 684.734375 308.964844 684.804688 308.675781 684.851562 308.382812 C 684.902344 308.089844 684.933594 307.792969 684.945312 307.492188 C 684.953125 307.195312 684.945312 306.898438 684.914062 306.597656 C 684.886719 306.300781 684.835938 306.007812 684.765625 305.71875 C 684.695312 305.429688 684.609375 305.144531 684.5 304.863281 C 684.390625 304.585938 684.265625 304.316406 684.121094 304.054688 C 683.976562 303.792969 683.816406 303.542969 683.636719 303.304688 C 683.460938 303.0625 683.265625 302.835938 683.054688 302.625 C 682.847656 302.410156 682.625 302.210938 682.390625 302.03125 C 682.152344 301.847656 681.90625 301.679688 681.648438 301.527344 C 681.390625 301.378906 681.121094 301.246094 680.847656 301.132812 C 680.570312 301.019531 680.289062 300.925781 680 300.847656 C 679.710938 300.773438 679.417969 300.71875 679.121094 300.679688 C 678.824219 300.644531 678.527344 300.628906 678.230469 300.632812 C 677.929688 300.636719 677.632812 300.660156 677.339844 300.703125 C 677.042969 300.75 676.75 300.8125 676.464844 300.894531 L 608.25 320.699219 L 607.855469 320.699219 C 607.054688 320.972656 606.34375 321.402344 605.730469 321.984375 C 605.730469 321.984375 662.316406 378.835938 662.316406 378.835938 Z M 662.316406 378.835938 "/></g></g></g></g></g></g></g><g clip-rule="nonzero" clip-path="url(#7017dedf7a)"><g clip-rule="nonzero" clip-path="url(#808b1c07b8)"><g clip-rule="nonzero" clip-path="url(#23aa1d8782)"><g clip-rule="nonzero" clip-path="url(#cb64c03781)"><g clip-rule="nonzero" clip-path="url(#c5b4ef5494)"><g clip-rule="nonzero" clip-path="url(#8cfe6cf614)"><g clip-rule="nonzero" clip-path="url(#b0c48ca0dc)"><g clip-rule="nonzero" clip-path="url(#b58116dc80)"><g clip-rule="nonzero" clip-path="url(#13dc326230)"><g clip-rule="nonzero" clip-path="url(#40f8e53859)"><path style=" stroke:none;fill-rule:nonzero;fill:#000000;fill-opacity:1;" d="M -89.722656 706.683594 L 879.570312 706.6875 L 879.570312 100.957031 L -89.726562 100.957031 Z M -89.722656 706.683594 "/></g></g></g></g></g></g></g></g></g></g></g></svg>